PathFileType	4	(X/Y/Z)	..\data\2014031\dynamic\2014031_C4_02.trc
DataRate	CameraRate	NumFrames	NumMarkers	Units	OrigDataRate	OrigDataStartFrame	OrigNumFrames
100.000000	100.000000	4	52	mm	100.000000	42	170
Frame#	Time	L_IAS			L_IPS			R_IPS			R_IAS			L_FTC			L_FLE			L_FME			L_FAX			L_TTC			L_FAL			L_TAM			L_FCC			L_FM1			L_FM2			L_FM5			R_FTC			R_FLE			R_FME			R_FAX			R_TTC			R_FAL			R_TAM			R_FCC			R_FM1			R_FM2			R_FM5			CV7			TV10			SXS			SJN			L_SIA			L_SRS			L_SAA			L_SAE			L_HLE			L_HME			L_UOA			L_RSP			L_UHE			L_HM2			L_HM5			R_SIA			R_SRS			R_SAA			R_SAE			R_HLE			R_HME			R_UOA			R_RSP			R_UHE			R_HM2			R_HM5			
		X1	Y1	Z1	X2	Y2	Z2	X3	Y3	Z3	X4	Y4	Z4	X5	Y5	Z5	X6	Y6	Z6	X7	Y7	Z7	X8	Y8	Z8	X9	Y9	Z9	X10	Y10	Z10	X11	Y11	Z11	X12	Y12	Z12	X13	Y13	Z13	X14	Y14	Z14	X15	Y15	Z15	X16	Y16	Z16	X17	Y17	Z17	X18	Y18	Z18	X19	Y19	Z19	X20	Y20	Z20	X21	Y21	Z21	X22	Y22	Z22	X23	Y23	Z23	X24	Y24	Z24	X25	Y25	Z25	X26	Y26	Z26	X27	Y27	Z27	X28	Y28	Z28	X29	Y29	Z29	X30	Y30	Z30	X31	Y31	Z31	X32	Y32	Z32	X33	Y33	Z33	X34	Y34	Z34	X35	Y35	Z35	X36	Y36	Z36	X37	Y37	Z37	X38	Y38	Z38	X39	Y39	Z39	X40	Y40	Z40	X41	Y41	Z41	X42	Y42	Z42	X43	Y43	Z43	X44	Y44	Z44	X45	Y45	Z45	X46	Y46	Z46	X47	Y47	Z47	X48	Y48	Z48	X49	Y49	Z49	X50	Y50	Z50	X51	Y51	Z51	X52	Y52	Z52	

43	0.42	266.4852600097657	955.4251098632815	-361.0462646484376	67.3792190551758	990.704284667969	-307.2464904785157	64.14881896972658	982.102233886719	-200.7144775390626	252.5750885009766	956.4417114257815	-135.1286163330078	161.940185546875	882.2810058593752	-438.750946044922	140.1130523681641	463.9576721191407	-381.6979675292969	132.2131500244141	464.2780761718751	-251.2451324462891	121.4552078247071	404.7457275390626	-380.0228881835938	179.5433044433594	402.0739746093751	-317.3483581542969	45.12933731079102	68.70688629150392	-331.1628112792969	69.60079956054689	85.66664123535158	-240.9047851562501	-2.674418926239014	22.81639671325684	-284.3984985351563	192.0053100585938	18.94443702697754	-244.4676513671876	201.4681701660157	33.78704071044923	-303.6837158203126	156.1903381347657	21.59670448303223	-357.9828491210938	181.7178497314453	867.290710449219	-66.57997894287111	336.2912902832032	495.5618896484376	-111.2841415405274	352.9164428710938	487.5014953613282	-237.6114044189454	324.3309936523438	440.1082153320314	-109.77685546875	391.987518310547	430.8807678222657	-158.2576446533203	218.2693023681641	112.9035186767578	-147.1201782226563	269.5302429199219	121.9261703491211	-226.5357208251954	181.9886016845703	66.00853729248048	-205.7276611328126	368.1556091308594	35.19982147216798	-187.8833618164063	362.9635925292969	50.68706512451173	-132.9947052001953	309.8634338378907	34.17343521118165	-97.06780242919925	147.1380157470703	1507.223754882813	-241.7224731445313	60.74953842163087	1230.934936523438	-258.8297729492188	282.3775634765626	1220.333129882813	-247.6098327636719	257.8681945800782	1415.575927734375	-244.3939971923829	67.83021545410158	1264.545776367188	-373.1263427734376	115.7056198120117	1416.6845703125	-387.1889953613282	170.614730834961	1408.58251953125	-444.2640686035157	216.7586364746094	1411.26171875	-440.7191467285157	227.3275451660157	1077.821655273438	-520.8331909179689	187.1086883544922	1048.44921875	-449.142547607422	193.5497741699219	1040.520751953125	-500.3206481933595	399.8406982421876	885.4837036132815	-427.9461975097657	377.9617004394532	867.4372558593752	-504.9771728515626	460.1215820312501	819.4980468750002	-426.0955200195314	400.4685974121095	793.5469970703127	-502.7334289550782	49.86981582641603	1260.214233398438	-158.239242553711	98.93575286865237	1415.132568359375	-125.8486480712891	149.4281616210938	1410.527954101563	-62.39087295532228	192.9105682373047	1399.799926757813	-44.46252822875977	119.5231628417969	1068.546752929688	14.82395935058594	98.03025817871097	1054.854858398438	-66.98624420166017	81.75109863281251	1043.647216796875	-26.71069335937501	248.1231689453126	842.387634277344	-9.530862808227541	193.2255554199219	827.7972412109377	46.02776336669923	285.0032043457032	755.0870971679689	-3.92091727256775	197.7277832031251	742.3784179687501	45.70807266235352	
44	0.43	276.7861938476563	954.0072021484377	-361.3531188964844	77.89617919921876	990.0830688476565	-306.5870056152344	75.47341918945314	981.0240478515627	-200.0970764160157	264.0573120117188	954.995544433594	-135.4533996582032	171.1380920410157	881.5540771484377	-438.5532836914064	142.9291687011719	463.7956848144532	-381.8427429199219	135.7487182617188	464.1929321289064	-251.3800354003907	123.6490020751953	404.7653198242189	-380.0664978027344	181.9854888916016	401.5650024414064	-317.7680969238282	45.30808258056641	69.12541961669923	-330.6860046386719	70.34337615966798	86.10659027099611	-240.5719604492188	-2.564626216888428	23.41403770446778	-283.7396240234376	192.2101745605469	18.95383071899414	-244.5489196777344	201.5384368896485	33.71566009521485	-303.7033691406251	156.0347900390625	21.59107780456543	-357.8682250976563	193.2378540039063	866.1190185546877	-66.60088348388673	349.6058044433594	494.780975341797	-111.4716415405274	365.5623168945313	486.5308532714845	-237.989974975586	340.1183166503907	438.4992980957032	-109.8513793945313	407.7248535156251	432.2408142089845	-158.6034698486328	254.4289550781251	105.4611968994141	-146.4311218261719	305.0173645019532	117.1682586669922	-225.6684875488282	221.5789184570313	55.98030853271486	-205.0247039794922	408.9677734375001	37.22873687744141	-186.6969604492188	402.7001342773439	52.47402191162111	-131.8631439208985	350.6548156738282	33.08003616333009	-95.92996978759767	158.2654876708985	1506.071899414063	-241.4114074707032	71.85769653320314	1229.848876953125	-258.6594543457032	293.6469726562501	1219.212524414063	-247.917465209961	269.0683898925782	1414.455932617188	-244.3264312744141	79.08091735839845	1263.517578125	-373.2124938964844	126.6137466430664	1415.752807617188	-387.0198364257814	181.5557403564453	1407.870727539063	-444.0462036132814	227.6053466796876	1410.652709960938	-440.4824829101564	241.2756042480469	1077.703125	-521.6380615234376	201.4666748046876	1047.527709960938	-449.7653808593751	208.1493225097657	1039.412719726563	-501.1903686523439	419.2668762207032	891.6165161132815	-426.0581665039064	398.0560913085939	871.8126220703127	-502.8243103027345	482.0101623535157	828.0524902343752	-423.3667907714845	423.0972595214845	798.7532958984377	-499.4531555175782	60.96007919311525	1258.861694335938	-158.7183990478516	110.0073547363282	1413.834350585938	-125.9639053344727	160.3582763671875	1409.143676757813	-62.43440628051759	203.7530975341797	1398.412231445313	-44.34642791748048	127.5099639892578	1067.832397460938	14.29698657989502	106.6722106933594	1054.31494140625	-67.61143493652345	89.52733612060548	1043.3935546875	-27.46314239501954	253.5992126464844	839.9572753906252	-8.686401367187502	197.937484741211	826.2030029296877	46.47533416748048	289.1231079101563	752.2650756835939	-2.736948490142823	201.2765655517579	740.7492065429689	46.27864837646485	
45	0.44	287.0542907714844	952.475524902344	-361.6268005371094	88.54891204833986	989.3005981445315	-305.7921142578126	86.89904022216798	979.8037719726565	-199.3790435791016	275.6396484375001	953.3321533203127	-135.7489166259766	180.3410339355469	880.8054199218752	-438.3494873046876	145.8968048095703	463.6816406250001	-381.9420166015626	139.5672302246094	464.133758544922	-251.482650756836	125.9842910766602	404.8391723632814	-380.0466003417969	184.6126708984375	401.0716857910157	-318.1727905273438	45.51767730712891	69.63148498535158	-330.1180725097657	71.18462371826173	86.61112213134767	-240.175277709961	-2.407760381698609	24.1304111480713	-282.9605102539063	192.4199829101563	18.95630264282227	-244.6229095458985	201.5806884765626	33.61323165893555	-303.6921081542969	155.8334350585938	21.59774780273438	-357.7039184570313	204.7276611328126	864.6359863281252	-66.6432342529297	362.2576599121094	493.5277404785157	-111.4537429809571	377.6927185058594	485.0494384765626	-238.1927947998047	355.4772949218751	436.5923461914064	-109.7384567260742	422.8328857421876	433.2650451660157	-158.8453826904297	290.8039245605469	98.97253417968753	-145.6316223144532	340.2324523925782	113.4020156860352	-224.7463531494141	261.3973999023438	47.10452270507813	-204.1709136962891	449.2187500000001	40.55508041381837	-185.9477081298828	442.1385803222657	55.46628570556642	-131.1321105957032	391.4590148925782	33.20868682861329	-95.04393768310548	169.4577941894532	1504.773315429688	-241.0382537841797	83.0358123779297	1228.620971679688	-258.3349304199219	304.9854125976563	1217.97314453125	-248.1756439208985	280.3395690917969	1413.206787109375	-244.2211608886719	90.33163452148439	1262.317504882813	-373.1195373535157	137.5548248291016	1414.666870117188	-386.7660217285157	192.5197448730469	1406.986450195313	-443.7501220703126	238.4813385009766	1409.85791015625	-440.184051513672	255.0548553466797	1077.44775390625	-522.4125976562501	215.6141357421876	1046.491943359375	-450.3734130859376	222.5806579589844	1038.211547851563	-502.0534667968751	438.1946411132814	897.7429199218752	-424.1667480468751	417.7300415039064	876.2052001953127	-500.6470642089845	503.3705444335939	836.7419433593752	-420.6761779785157	445.2999572753907	804.0695800781252	-496.1451721191407	72.19483184814455	1257.357177734375	-159.034164428711	121.198471069336	1412.39697265625	-125.9844131469727	171.455078125	1407.623901367188	-62.40002441406251	214.7377929687501	1396.906494140625	-44.16173934936524	135.6671905517578	1067.024169921875	13.83369636535645	115.4681549072266	1053.67431640625	-68.16246795654298	97.50577545166018	1043.033935546875	-28.14480781555176	259.2205505371094	837.4438476562502	-7.895174980163576	202.822982788086	824.5490722656252	46.91120529174805	293.3106079101563	749.3900756835939	-1.658522725105286	204.9750518798829	739.0842285156251	46.82783126831055	
46	0.45	297.2984313964844	950.853942871094	-361.8809509277344	99.31912231445315	988.3728637695315	-304.8688049316407	98.4237976074219	978.4473266601565	-198.5613403320313	287.3301086425782	951.4807128906252	-136.0306549072266	189.5678100585938	880.0406494140627	-438.1385498046876	149.0843963623047	463.609832763672	-381.9972229003907	143.7258605957032	464.0960998535157	-251.5551910400391	128.5252838134766	404.9631652832032	-379.9685668945313	187.4720764160157	400.5794372558595	-318.5511779785157	45.76854705810548	70.23873901367189	-329.4763793945313	72.11671447753908	87.18843841552736	-239.7310485839844	-2.196025848388672	24.98472213745118	-282.0858764648438	192.6309356689454	18.96004486083985	-244.6897430419922	201.5985107421876	33.48665237426759	-303.6545104980469	155.5929107666016	21.62386131286621	-357.4949340820313	216.2268829345704	862.8630371093752	-66.71385955810548	374.3313598632813	491.8455505371095	-111.2249145507813	389.3298645019532	483.0997619628907	-238.2188873291016	370.4640808105469	434.4369201660157	-109.4425735473633	437.3551635742189	433.9769897460939	-159.0013275146485	327.1325073242188	93.4935989379883	-144.730209350586	374.9087219238282	110.6443023681641	-223.8123626708985	301.0880126953126	39.45535278320313	-203.163803100586	488.5955810546876	45.12907791137696	-185.7528381347657	481.0042724609376	59.6081886291504	-130.9193725585938	432.0177307128907	34.52735900878907	-94.51096343994142	180.7218780517578	1503.33984375	-240.5958404541016	94.28627014160158	1227.266357421875	-257.8540039062501	316.3948974609376	1216.622680664063	-248.3866577148438	291.6864013671876	1411.840087890625	-244.0745697021485	101.5848007202149	1260.966918945313	-372.8513488769532	148.5352172851563	1413.441284179688	-386.424285888672	203.5143585205079	1405.944702148438	-443.377899169922	249.392562866211	1408.89599609375	-439.8249511718751	268.6709899902344	1077.0625	-523.1406250000001	229.559555053711	1045.348876953125	-450.9510803222657	236.8463897705079	1036.926879882813	-502.8901672363282	456.6076965332032	903.815368652344	-422.2848510742189	436.9573364257814	880.5816040039065	-498.4587402343751	524.1524658203126	845.4939575195315	-418.0487670898439	467.0323486328126	809.4610595703127	-492.8394775390626	83.58200836181642	1255.721923828125	-159.1648712158203	132.5208129882813	1410.834838867188	-125.8992004394532	182.7333374023438	1405.981323242188	-62.27941894531251	225.8725585937501	1395.297241210938	-43.90862274169923	144.0164947509766	1066.1279296875	13.43555545806885	124.428955078125	1052.945068359375	-68.64224243164064	105.716667175293	1042.577880859375	-28.75804138183594	264.9932250976563	834.8625488281252	-7.150865554809572	207.8861083984376	822.842712402344	47.33353424072266	297.5764465332032	746.4687500000001	-0.6745560169219972	208.8286285400391	737.3906250000001	47.35190582275391	
